<?xml version="1.0" standalone="no"?>
<!DOCTYPE svg PUBLIC "-//W3C//DTD SVG 20010904//EN"
 "http://www.w3.org/TR/2001/REC-SVG-20010904/DTD/svg10.dtd">
<svg version="1.0" xmlns="http://www.w3.org/2000/svg"
 width="1024.000000pt" height="1024.000000pt" viewBox="0 0 1024.000000 1024.000000"
 preserveAspectRatio="xMidYMid meet">

<g transform="translate(0.000000,1024.000000) scale(0.100000,-0.100000)"
fill="#000000" stroke="none">
<path d="M2108 9290 c-342 -31 -636 -173 -875 -423 -175 -184 -283 -384 -350
-653 -16 -65 -17 -270 -18 -3184 -1 -1713 1 -3077 5 -3030 3 47 7 66 8 43 1
-24 7 -43 12 -43 6 0 10 -18 10 -40 0 -30 4 -40 16 -40 22 0 43 -29 44 -57 0
-14 6 -23 15 -23 11 0 15 -11 15 -40 0 -36 3 -40 25 -40 14 0 25 -4 25 -9 0
-9 57 -71 66 -71 2 0 4 7 4 15 0 19 14 19 30 0 17 -21 60 -20 60 2 0 15 1 15
18 0 10 -10 28 -17 40 -17 20 0 22 5 22 56 0 49 2 55 15 44 8 -7 15 -18 15
-25 0 -12 31 -45 43 -45 4 0 7 23 7 50 0 28 4 50 8 50 12 0 42 -34 42 -47 0
-6 7 -16 15 -23 13 -11 15 -5 15 44 0 63 9 69 45 28 21 -23 26 -25 35 -12 9
13 14 11 35 -12 36 -41 45 -35 45 28 0 49 2 55 15 44 8 -7 15 -18 15 -25 0 -6
9 -20 21 -31 17 -16 22 -16 30 -4 8 13 14 10 34 -12 13 -16 29 -28 34 -28 6 0
11 36 13 83 l3 82 18 -57 c17 -53 39 -78 52 -58 4 6 2 10 -3 10 -5 0 -5 16 1
39 10 38 11 39 49 33 34 -4 38 -2 38 17 0 11 -6 21 -14 21 -8 0 -23 3 -33 6
-13 4 -14 3 -5 -4 11 -7 10 -10 -3 -16 -25 -9 -25 -9 -25 29 l0 35 41 -6 41
-7 -6 29 c-3 16 -2 35 3 43 8 13 12 13 26 1 10 -8 21 -24 26 -37 5 -13 13 -23
19 -23 13 0 14 257 0 262 -7 2 -7 14 0 37 11 40 10 201 -2 201 -4 0 -8 18 -8
40 0 22 -4 40 -10 40 -5 0 -10 -18 -10 -40 0 -22 -4 -40 -10 -40 -5 0 -10 18
-10 40 0 22 -4 40 -10 40 -6 0 -9 61 -8 158 0 86 -3 218 -7 293 -4 75 -5 148
-1 162 l6 27 131 0 131 0 29 -29 c16 -16 29 -38 29 -49 0 -11 7 -36 15 -55 8
-20 15 -52 15 -71 0 -20 7 -54 16 -76 15 -37 24 -45 47 -41 13 2 46 -42 47
-61 0 -9 -5 -18 -12 -20 -9 -3 -8 -13 5 -39 16 -32 17 -33 23 -12 8 29 18 29
42 -2 26 -33 42 -32 42 5 0 35 22 40 52 13 14 -13 21 -14 30 -5 15 15 78 16
78 2 0 -15 77 -12 83 3 2 7 10 0 17 -15 7 -16 16 -28 19 -28 12 0 41 62 41 87
l0 25 38 -30 c30 -24 102 -62 118 -62 2 0 4 14 4 30 0 28 2 30 40 30 33 0 40
4 40 19 0 11 9 21 21 24 17 5 20 11 15 31 -5 19 0 29 19 44 26 21 33 42 14 42
-7 0 -8 14 -4 40 6 33 4 40 -10 40 -14 0 -16 7 -11 38 4 20 2 43 -3 51 -16 25
-1 51 30 51 15 0 31 5 34 10 3 6 45 10 93 10 89 -1 122 -12 122 -43 0 -8 6
-17 13 -20 8 -3 21 -27 31 -54 10 -26 20 -55 23 -63 4 -11 8 -8 13 10 6 20 8
15 9 -22 1 -42 -2 -48 -19 -48 -11 0 -20 -4 -20 -9 0 -20 13 -41 25 -41 7 0
18 -7 25 -15 10 -12 9 -15 -6 -16 -11 -1 -22 -1 -26 0 -13 2 -8 -13 12 -39 11
-14 20 -19 20 -11 0 11 3 11 15 1 9 -7 13 -21 9 -35 -7 -27 11 -41 31 -25 12
10 15 8 15 -11 0 -19 2 -21 9 -9 6 8 7 18 4 24 -3 5 -1 6 5 2 8 -5 11 -39 10
-99 l-2 -92 -6 70 -6 70 -4 -85 c-3 -77 -4 -81 -11 -40 -6 36 -7 29 -6 -37 l2
-83 -32 0 c-36 0 -40 -7 -19 -35 12 -16 16 -17 30 -6 14 12 16 7 16 -53 0 -59
-2 -66 -20 -66 -11 0 -20 -6 -20 -14 0 -22 19 -30 35 -16 13 11 15 7 15 -19 0
-36 17 -42 22 -8 2 12 3 -42 4 -120 l1 -143 -35 0 -35 0 21 -23 c12 -13 22
-31 22 -40 0 -22 17 -22 23 0 3 10 5 1 6 -19 0 -21 6 -38 11 -38 7 0 10 226
10 658 0 407 4 663 10 672 6 10 10 11 10 3 0 -8 15 -13 40 -13 22 0 40 -4 40
-10 0 -5 25 -10 56 -10 46 0 55 -3 50 -15 -3 -10 1 -18 12 -21 39 -13 68 -30
85 -51 15 -18 29 -23 68 -23 37 0 49 -4 49 -15 0 -8 -7 -15 -16 -15 -14 0 -15
-10 -9 -75 5 -55 3 -80 -6 -91 -9 -10 -9 -18 -1 -26 17 -17 34 1 27 29 -3 14
-3 56 1 94 l7 69 38 0 c39 0 39 0 39 40 l0 40 40 0 c35 0 40 3 40 24 0 21 5
24 60 29 33 4 87 4 120 0 55 -5 60 -8 60 -29 0 -21 5 -24 39 -24 22 0 41 5 44
13 3 6 8 -3 12 -20 4 -18 13 -33 20 -33 25 0 29 -71 30 -490 1 -234 5 -505 9
-603 l8 -178 35 -14 c44 -18 43 -18 43 0 0 14 4 14 36 0 44 -18 44 -18 44 -1
0 12 8 12 50 -3 67 -24 72 -31 22 -31 -47 0 -52 -8 -21 -36 16 -14 23 -15 26
-6 3 7 21 12 44 12 37 0 39 2 39 30 0 28 2 30 40 30 22 0 40 5 40 10 0 6 13 5
33 -3 34 -14 127 -11 127 4 0 5 16 2 36 -6 45 -18 44 -18 44 0 0 13 4 14 34 1
19 -8 43 -12 53 -10 10 3 27 -2 38 -10 19 -14 16 -15 -34 -16 -50 0 -53 -1
-35 -14 10 -8 21 -10 22 -5 5 12 82 12 82 -1 0 -5 18 -10 40 -10 29 0 40 4 40
15 0 11 -11 15 -40 15 -33 0 -40 3 -40 20 0 17 6 20 38 18 20 -1 56 -1 80 0
41 2 42 3 42 37 l0 35 53 0 c31 0 61 -6 73 -15 19 -14 19 -14 -2 -15 -30 0
-25 -28 8 -39 15 -6 28 -6 28 -2 0 13 102 20 129 9 16 -6 27 -5 31 2 4 7 18 6
43 -5 l37 -15 0 34 0 34 80 7 c44 4 80 11 80 16 0 5 16 2 36 -6 45 -18 44 -18
44 0 0 14 4 14 36 0 45 -18 44 -18 44 0 0 14 4 14 36 0 45 -18 44 -18 44 0 0
11 11 15 41 15 22 0 92 2 156 4 106 4 147 12 115 23 -10 4 -10 8 -1 19 16 19
109 18 135 -1 18 -14 18 -14 -11 -16 -16 -1 -39 0 -50 1 -16 2 -17 0 -6 -14 7
-9 17 -14 21 -11 4 3 24 -2 44 -10 32 -14 36 -14 36 0 0 8 2 15 4 15 2 0 20
-7 40 -15 36 -15 36 -15 36 10 0 23 -4 25 -40 25 -36 0 -40 2 -40 25 0 25 0
25 36 10 45 -19 44 -19 44 5 0 24 -1 24 44 5 21 -9 36 -11 36 -5 0 6 15 4 36
-5 45 -18 44 -18 44 0 0 14 4 14 36 0 45 -18 44 -18 44 0 0 14 4 14 36 0 28
-12 40 -12 51 -4 10 9 20 9 39 0 32 -14 34 -14 34 4 0 14 4 14 36 0 45 -18 44
-18 44 0 0 14 4 14 36 0 45 -18 44 -18 44 0 0 14 4 14 36 0 45 -18 44 -18 44
0 0 14 4 14 36 0 45 -19 44 -19 44 5 0 24 -1 24 44 5 21 -9 36 -11 36 -5 0 6
15 4 36 -5 45 -18 44 -18 44 0 0 11 11 15 40 15 29 0 40 4 40 15 0 11 -11 15
-40 15 -29 0 -40 4 -40 15 0 11 11 15 40 15 22 0 40 5 40 10 0 6 14 4 34 -4
19 -8 43 -12 53 -10 10 3 27 -2 38 -10 19 -14 15 -15 -45 -16 -60 -1 -64 -2
-45 -16 11 -8 28 -13 38 -10 10 2 34 -2 53 -10 23 -10 34 -11 34 -3 0 8 12 9
36 4 24 -4 39 -2 44 5 7 12 58 -5 72 -25 5 -6 8 -2 8 8 0 10 5 15 11 11 6 -3
41 -8 79 -9 52 -2 70 0 74 11 3 8 20 14 41 14 31 0 35 3 35 25 0 28 17 32 46
10 18 -14 18 -14 -4 -15 -36 0 -17 -17 41 -35 28 -9 58 -19 65 -21 6 -3 12 1
12 10 0 15 3 15 35 2 20 -9 42 -13 49 -10 18 7 57 -13 53 -28 -1 -6 4 -13 11
-15 7 -3 12 5 12 21 0 29 17 33 46 11 17 -13 17 -14 2 -15 -11 0 -15 -5 -12
-14 7 -19 38 -30 42 -17 2 6 21 11 42 11 21 0 40 5 42 12 3 8 11 7 28 -5 39
-27 50 -22 50 23 0 40 0 40 39 40 33 0 40 -4 45 -25 5 -20 13 -25 36 -25 26 0
31 5 40 40 9 35 14 40 39 40 36 0 41 -12 41 -111 l0 -79 40 0 40 0 0 112 c0
107 1 110 18 95 10 -10 28 -17 40 -17 21 0 22 4 24 143 2 139 2 138 8 -58 3
-110 7 1187 8 2883 1 2146 -1 3105 -9 3155 -26 175 -93 362 -184 513 -62 102
-122 177 -136 169 -5 -4 -6 0 -3 8 7 20 -164 179 -267 248 -158 106 -305 166
-515 211 l-109 23 -2980 1 c-1639 1 -3019 -2 -3067 -6z m-768 -344 c0 -2 -8
-10 -17 -17 -16 -13 -17 -12 -4 4 13 16 21 21 21 13z m7681 -113 c13 -16 12
-17 -3 -4 -10 7 -18 15 -18 17 0 8 8 3 21 -13z m-7791 -19 c0 -8 -19 -13 -24
-6 -3 5 1 9 9 9 8 0 15 -2 15 -3z m-79 -87 c-10 -9 -11 -8 -5 6 3 10 9 15 12
12 3 -3 0 -11 -7 -18z m6774 -107 c3 -6 -1 -7 -9 -4 -18 7 -21 14 -7 14 6 0
13 -4 16 -10z m21 -41 c77 -23 179 -76 238 -122 37 -29 39 -30 52 -12 7 10 11
22 7 28 -3 6 -1 7 6 3 7 -5 30 9 56 33 25 23 54 41 65 41 19 0 20 -6 20 -218
0 -156 -3 -221 -12 -230 -17 -17 -439 -17 -456 0 -23 23 -12 44 65 115 l78 71
-25 27 c-13 14 -53 40 -88 57 -83 41 -209 51 -293 23 -196 -65 -314 -254 -279
-447 24 -130 109 -240 227 -296 52 -24 70 -27 163 -27 95 0 111 3 168 29 65
30 147 107 178 168 14 27 19 30 50 25 20 -3 52 -14 72 -24 46 -23 52 -58 21
-128 -46 -103 -181 -206 -324 -246 -85 -23 -235 -25 -315 -4 -307 81 -497 381
-436 688 42 215 221 398 441 451 93 22 239 20 321 -5z m344 -63 c0 -2 -8 -10
-17 -17 -16 -13 -17 -12 -4 4 13 16 21 21 21 13z m-75 -54 c-3 -3 -11 0 -18 7
-9 10 -8 11 6 5 10 -3 15 -9 12 -12z m-1253 -83 c26 -6 48 -14 48 -17 0 -4 -7
-43 -17 -87 -11 -56 -16 -130 -16 -250 0 -161 1 -175 29 -260 l30 -90 -345 0
c-290 0 -351 -2 -376 -15 -21 -11 -30 -22 -29 -37 1 -13 -3 -20 -7 -17 -5 3
-7 10 -4 15 4 5 1 9 -4 9 -6 0 -23 -19 -38 -42 -26 -38 -28 -51 -31 -155 l-4
-113 -204 0 c-220 0 -243 -4 -312 -56 -20 -16 -31 -32 -28 -41 3 -8 1 -11 -4
-8 -6 4 -19 -13 -30 -37 -18 -39 -20 -66 -20 -300 l0 -258 298 0 297 0 18 66
c43 165 184 306 350 350 76 20 193 18 269 -6 70 -22 167 -80 212 -128 17 -19
35 -28 45 -25 13 4 13 3 2 -5 -12 -8 -11 -15 6 -38 33 -47 60 -106 73 -161
l12 -53 304 0 304 0 0 243 c0 187 -3 255 -15 293 -8 27 -15 52 -15 55 0 3 37
9 83 12 129 9 295 71 411 154 59 42 59 42 106 -80 114 -298 140 -652 74 -977
-54 -261 -209 -577 -374 -762 -30 -34 -48 -63 -44 -69 4 -7 3 -9 -3 -6 -6 4
-39 -21 -74 -54 -244 -232 -549 -388 -889 -454 -113 -23 -379 -31 -507 -16
-311 36 -620 163 -859 352 -59 47 -82 60 -69 40 3 -5 1 -12 -4 -15 -5 -4 -8 2
-7 11 3 19 -220 260 -236 255 -5 -1 -7 2 -4 7 4 5 -20 49 -52 98 -150 226
-238 449 -277 703 -19 122 -19 373 0 498 26 176 86 365 164 520 23 46 39 87
36 93 -4 5 -2 8 3 7 6 -2 32 31 60 73 27 42 75 106 106 143 34 40 54 71 50 79
-4 6 -4 9 1 5 4 -4 47 29 94 74 294 279 664 451 1048 488 101 10 295 4 365
-11z m-2930 -509 c147 -70 273 -134 281 -142 8 -8 22 -28 31 -46 15 -29 16
-116 14 -971 l-3 -940 -30 -32 c-38 -40 -558 -299 -601 -299 -16 1 -39 6 -51
13 -13 7 -195 184 -405 392 -211 209 -438 434 -505 499 l-121 118 -219 -178
c-295 -242 -294 -241 -326 -259 -62 -35 -131 -13 -225 72 -39 34 -44 44 -53
105 -7 42 -9 258 -7 565 2 419 5 503 18 528 19 38 145 132 188 140 46 9 66 -3
246 -149 88 -71 162 -124 168 -120 6 4 8 3 5 -3 -6 -9 22 -35 146 -135 l61
-49 115 113 c64 62 293 289 508 503 216 215 405 395 420 402 16 6 39 9 53 6
14 -4 145 -64 292 -133z m-415 105 c0 -8 -4 -12 -9 -9 -5 3 -6 10 -3 15 9 13
12 11 12 -6z m3361 -577 l3 -78 -291 0 -290 0 0 80 0 80 288 -2 287 -3 3 -77z
m263 28 c5 3 8 0 7 -7 -2 -7 20 -28 49 -48 29 -20 52 -40 53 -44 0 -4 -37 -7
-82 -5 l-83 3 -3 74 -3 75 27 -27 c14 -15 30 -24 35 -21z m-4931 -140 c-7 -7
-13 -7 -20 0 -6 6 -3 10 10 10 13 0 16 -4 10 -10z m4115 -294 c-3 -3 -11 0
-18 7 -9 10 -8 11 6 5 10 -3 15 -9 12 -12z m-4155 -866 c0 -2 -7 -7 -16 -10
-8 -3 -12 -2 -9 4 6 10 25 14 25 6z m-120 -110 c0 -2 -7 -7 -16 -10 -8 -3 -12
-2 -9 4 6 10 25 14 25 6z m1074 -157 c-3 -5 -10 -7 -15 -3 -5 3 -7 10 -3 15 3
5 10 7 15 3 5 -3 7 -10 3 -15z m4927 -246 c13 -16 12 -17 -3 -4 -10 7 -18 15
-18 17 0 8 8 3 21 -13z m-66 -82 c-9 -8 -36 -10 -30 -2 2 4 11 8 20 8 8 0 13
-3 10 -6z m-2620 -70 c3 -5 2 -12 -3 -15 -5 -3 -9 1 -9 9 0 17 3 19 12 6z
m270 -211 c3 -6 -1 -7 -9 -4 -18 7 -21 14 -7 14 6 0 13 -4 16 -10z m-2807
-397 c42 -122 80 -220 84 -217 4 3 5 -1 3 -9 -3 -7 14 -72 39 -143 25 -71 108
-311 185 -534 77 -223 143 -413 146 -422 7 -17 -5 -18 -167 -18 l-174 0 -59
180 -58 180 -282 0 -281 0 -55 -177 -55 -178 -167 -3 c-136 -2 -167 0 -167 11
0 12 189 575 436 1300 l89 258 204 -3 203 -3 76 -222z m982 215 c0 -7 1 -296
3 -643 l2 -630 318 -3 317 -2 0 -140 0 -140 -485 0 -485 0 0 785 0 785 165 0
c125 0 165 -3 165 -12z m-373 -2090 c-2 -29 -3 -8 -3 47 0 55 1 79 3 53 2 -26
2 -71 0 -100z m20 5 c-2 -21 -4 -4 -4 37 0 41 2 58 4 38 2 -21 2 -55 0 -75z
m-20 -155 c-2 -18 -4 -6 -4 27 0 33 2 48 4 33 2 -15 2 -42 0 -60z m20 -5 c-2
-16 -4 -5 -4 22 0 28 2 40 4 28 2 -13 2 -35 0 -50z m-652 -13 c3 -5 -1 -10 -9
-10 -9 0 -16 5 -16 10 0 6 4 10 9 10 6 0 13 -4 16 -10z m652 -402 c-3 -8 -6
-5 -6 6 -1 11 2 17 5 13 3 -3 4 -12 1 -19z m-1601 -162 c-6 -25 -36 -37 -36
-15 0 5 5 7 12 3 6 -4 8 -3 5 3 -4 6 -4 26 0 44 6 31 7 32 16 12 5 -12 7 -33
3 -47z m-1079 -108 c-3 -8 -6 -5 -6 6 -1 11 2 17 5 13 3 -3 4 -12 1 -19z
m7388 -48 c4 -6 -15 -10 -49 -10 -31 0 -56 5 -56 10 0 6 22 10 49 10 28 0 53
-4 56 -10z m80 0 c3 -5 -1 -10 -9 -10 -9 0 -16 5 -16 10 0 6 4 10 9 10 6 0 13
-4 16 -10z m80 0 c3 -5 -1 -10 -9 -10 -9 0 -16 5 -16 10 0 6 4 10 9 10 6 0 13
-4 16 -10z m-6478 -26 c-3 -3 -12 -4 -19 -1 -8 3 -5 6 6 6 11 1 17 -2 13 -5z
m4965 -31 c25 -22 23 -33 -7 -33 -20 0 -25 5 -25 25 0 29 7 31 32 8z m284 -13
c2 0 4 7 4 15 0 19 9 19 32 -2 30 -27 21 -33 -47 -33 -63 0 -65 1 -65 25 0 25
0 25 36 10 20 -8 38 -15 40 -15z m516 13 c25 -22 23 -33 -7 -33 -20 0 -25 5
-25 25 0 29 7 31 32 8z m548 -20 c0 -7 -4 -13 -10 -13 -5 0 -10 12 -10 28 0
21 2 24 10 12 5 -8 10 -21 10 -27z m-6380 -5 c0 -5 -4 -8 -10 -8 -5 0 -10 10
-10 23 0 18 2 19 10 7 5 -8 10 -18 10 -22z m4780 7 c10 -12 10 -15 -4 -15 -9
0 -16 7 -16 15 0 8 2 15 4 15 2 0 9 -7 16 -15z m160 0 c10 -12 10 -15 -4 -15
-9 0 -16 7 -16 15 0 8 2 15 4 15 2 0 9 -7 16 -15z m160 0 c10 -12 10 -15 -4
-15 -9 0 -16 7 -16 15 0 8 2 15 4 15 2 0 9 -7 16 -15z m80 0 c10 -12 10 -15
-4 -15 -9 0 -16 7 -16 15 0 8 2 15 4 15 2 0 9 -7 16 -15z m240 0 c10 -12 10
-15 -4 -15 -9 0 -16 7 -16 15 0 8 2 15 4 15 2 0 9 -7 16 -15z m346 0 c18 -14
17 -14 -13 -15 -23 0 -33 5 -33 15 0 19 21 19 46 0z m400 0 c18 -14 17 -14
-13 -15 -23 0 -33 5 -33 15 0 19 21 19 46 0z m80 0 c18 -14 17 -14 -13 -15
-23 0 -33 5 -33 15 0 19 21 19 46 0z m80 0 c18 -14 17 -14 -13 -15 -23 0 -33
5 -33 15 0 19 21 19 46 0z m160 0 c18 -14 17 -14 -13 -15 -23 0 -33 5 -33 15
0 19 21 19 46 0z m134 -6 c0 -5 -4 -9 -10 -9 -5 0 -10 7 -10 16 0 8 5 12 10 9
6 -3 10 -10 10 -16z m-1115 1 c3 -5 -1 -10 -9 -10 -9 0 -16 5 -16 10 0 6 4 10
9 10 6 0 13 -4 16 -10z m160 0 c3 -5 -1 -10 -9 -10 -9 0 -16 5 -16 10 0 6 4
10 9 10 6 0 13 -4 16 -10z m1040 0 c3 -5 -1 -10 -9 -10 -9 0 -16 5 -16 10 0 6
4 10 9 10 6 0 13 -4 16 -10z m-2001 -66 c9 -22 8 -24 -9 -24 -8 0 -15 9 -15
20 0 24 15 27 24 4z m-4797 -16 c-3 -8 -6 -5 -6 6 -1 11 2 17 5 13 3 -3 4 -12
1 -19z m4099 7 c18 -14 17 -14 -13 -15 -23 0 -33 5 -33 15 0 19 21 19 46 0z
m294 0 c10 -12 10 -15 -4 -15 -9 0 -16 7 -16 15 0 8 2 15 4 15 2 0 9 -7 16
-15z m266 0 c18 -14 17 -14 -13 -15 -23 0 -33 5 -33 15 0 19 21 19 46 0z
m-501 -5 c3 -5 -1 -10 -9 -10 -9 0 -16 5 -16 10 0 6 4 10 9 10 6 0 13 -4 16
-10z m80 0 c3 -5 -1 -10 -9 -10 -9 0 -16 5 -16 10 0 6 4 10 9 10 6 0 13 -4 16
-10z m80 0 c3 -5 -1 -10 -9 -10 -9 0 -16 5 -16 10 0 6 4 10 9 10 6 0 13 -4 16
-10z m160 0 c3 -5 -1 -10 -9 -10 -9 0 -16 5 -16 10 0 6 4 10 9 10 6 0 13 -4
16 -10z m2560 0 c3 -5 -1 -10 -9 -10 -9 0 -16 5 -16 10 0 6 4 10 9 10 6 0 13
-4 16 -10z m-6922 -27 c-7 -2 -21 -2 -30 0 -10 3 -4 5 12 5 17 0 24 -2 18 -5z
m3901 -18 c20 -8 36 -11 36 -6 0 6 10 6 28 0 16 -5 29 -16 29 -24 0 -12 -20
-15 -109 -15 l-108 0 0 25 c0 25 0 25 36 10 45 -19 44 -19 44 5 0 24 -1 24 44
5z m-4264 -30 c10 -12 10 -15 -4 -15 -9 0 -16 7 -16 15 0 8 2 15 4 15 2 0 9
-7 16 -15z m3767 0 c0 -8 -6 -15 -14 -15 -7 0 -13 7 -13 15 0 8 6 15 13 15 8
0 14 -7 14 -15z m179 0 c17 -13 12 -14 -53 -15 -58 0 -73 3 -73 15 0 21 99 21
126 0z m-4181 -5 c3 -5 -1 -10 -10 -10 -9 0 -13 5 -10 10 3 6 8 10 10 10 2 0
7 -4 10 -10z m400 0 c3 -5 -1 -10 -9 -10 -9 0 -16 5 -16 10 0 6 4 10 9 10 6 0
13 -4 16 -10z m3360 0 c3 -5 -1 -10 -9 -10 -9 0 -16 5 -16 10 0 6 4 10 9 10 6
0 13 -4 16 -10z m-4001 -91 c-8 -13 -24 -1 -24 18 0 13 3 13 15 3 8 -7 12 -16
9 -21z"/>
<path d="M6532 6808 c-9 -9 -12 -78 -12 -248 0 -247 2 -260 45 -260 11 0 67
32 125 70 58 39 138 92 178 118 107 69 106 71 -108 214 -96 64 -184 117 -195
117 -12 1 -26 -4 -33 -11z m373 -226 c-3 -3 -11 0 -18 7 -9 10 -8 11 6 5 10
-3 15 -9 12 -12z"/>
<path d="M5600 6195 c0 -309 2 -321 57 -393 14 -19 49 -45 78 -58 l53 -24 908
0 908 0 51 24 c56 26 99 73 121 133 10 28 13 111 14 321 l0 282 -305 0 -304 0
-11 -42 c-17 -68 -31 -99 -68 -155 -120 -185 -362 -267 -572 -195 -157 55
-281 188 -321 345 l-11 47 -299 0 -299 0 0 -285z"/>
<path d="M3595 7189 c-49 -38 -89 -74 -87 -80 1 -6 -2 -8 -7 -5 -13 8 -242
-164 -234 -177 3 -6 1 -7 -5 -3 -14 8 -144 -92 -136 -105 3 -5 -1 -7 -8 -4 -7
3 -41 -17 -75 -43 l-62 -48 70 -53 c38 -28 75 -49 81 -45 6 4 8 3 5 -3 -9 -14
190 -166 205 -157 6 4 8 3 4 -4 -3 -6 68 -67 173 -146 l178 -135 1 540 c0 296
-3 539 -6 538 -4 0 -47 -31 -97 -70z"/>
<path d="M2060 6722 c0 -164 4 -282 9 -282 5 0 11 3 13 8 2 4 63 58 136 121
115 99 131 116 120 130 -12 14 -11 14 5 2 14 -11 20 -11 32 -1 14 12 14 15 -2
32 -9 10 -23 16 -30 13 -8 -2 -12 -1 -9 4 3 4 -10 23 -29 41 -30 30 -36 32
-52 19 -16 -13 -17 -12 -5 2 11 14 2 26 -65 85 -43 37 -88 77 -100 88 l-23 19
0 -281z m195 -91 c3 -5 2 -12 -3 -15 -5 -3 -9 1 -9 9 0 17 3 19 12 6z"/>
<path d="M2546 4447 c-55 -169 -97 -309 -94 -312 3 -3 93 -4 200 -3 l194 3
-101 309 -100 309 -99 -306z"/>
<path d="M4050 2876 c0 -2 7 -9 15 -16 12 -10 15 -10 15 4 0 9 -7 16 -15 16
-8 0 -15 -2 -15 -4z"/>
<path d="M4030 2792 c0 -10 33 -42 43 -42 4 0 7 11 7 25 0 20 -5 25 -25 25
-14 0 -25 -4 -25 -8z"/>
<path d="M2531 2704 c0 -11 3 -14 6 -6 3 7 2 16 -1 19 -3 4 -6 -2 -5 -13z"/>
<path d="M3522 2700 c0 -14 2 -19 5 -12 2 6 2 18 0 25 -3 6 -5 1 -5 -13z"/>
<path d="M4270 2710 c0 -5 5 -10 10 -10 6 0 10 5 10 10 0 6 -4 10 -10 10 -5 0
-10 -4 -10 -10z"/>
<path d="M2460 2600 c0 -29 -4 -40 -15 -40 -11 0 -15 -11 -15 -40 l0 -40 -40
0 c-45 0 -49 -8 -19 -36 17 -15 22 -16 29 -4 8 13 13 12 31 -7 21 -20 21 -22
5 -39 -15 -14 -19 -15 -27 -3 -5 9 -9 10 -9 2 0 -13 57 -73 70 -73 5 0 9 8 9
18 1 87 2 90 27 78 18 -8 20 -12 8 -16 -12 -5 -10 -11 11 -30 19 -18 28 -21
34 -12 5 8 12 0 21 -23 13 -34 26 -40 73 -35 10 1 28 -6 38 -16 17 -15 22 -16
29 -4 7 12 12 11 29 -4 31 -28 26 -38 -16 -36 -21 1 -57 2 -80 1 -41 -1 -43
-3 -43 -31 0 -16 -4 -30 -10 -30 -5 0 -10 -4 -10 -10 0 -5 11 -10 25 -10 14 0
25 -5 25 -10 0 -6 12 -22 28 -35 21 -19 24 -26 15 -36 -10 -10 -9 -16 4 -31
26 -29 33 -22 33 32 0 55 7 61 36 29 15 -17 16 -22 4 -29 -12 -7 -11 -12 4
-29 11 -12 23 -21 28 -21 4 0 8 41 8 90 l0 90 45 0 c34 0 47 -5 55 -19 15 -29
13 -31 -30 -31 -45 0 -49 -8 -19 -36 17 -15 22 -16 29 -4 7 12 12 11 29 -4 26
-24 27 -36 1 -36 -29 0 -28 -62 1 -91 26 -26 38 -13 40 46 1 22 4 54 8 70 7
29 7 30 19 8 16 -28 15 -33 -3 -33 -8 0 -15 -7 -15 -15 0 -11 11 -15 40 -15
29 0 40 4 40 15 0 8 -7 15 -15 15 -19 0 -19 11 0 36 8 11 14 41 15 72 l0 52
-40 0 c-36 0 -40 3 -40 25 0 22 4 25 34 25 30 0 34 4 40 31 3 17 6 49 6 70 0
39 0 39 40 39 36 0 40 3 40 25 0 23 -4 25 -40 25 l-40 0 0 80 c0 79 0 80 -25
80 -22 0 -25 -4 -25 -40 0 -29 -4 -40 -15 -40 -11 0 -15 11 -15 40 0 29 -4 40
-15 40 -11 0 -15 -11 -15 -40 l0 -40 -170 0 -170 0 0 -40 c0 -29 -4 -40 -15
-40 -11 0 -15 11 -15 40 0 36 -2 40 -25 40 -22 0 -25 -4 -25 -40 0 -29 -4 -40
-15 -40 -12 0 -15 16 -15 80 0 47 -4 80 -10 80 -5 0 -10 -18 -10 -40z m210
-210 c0 -5 -7 -10 -15 -10 -8 0 -15 5 -15 10 0 6 7 10 15 10 8 0 15 -4 15 -10z
m230 -55 c10 -12 10 -15 -4 -15 -9 0 -16 7 -16 15 0 8 2 15 4 15 2 0 9 -7 16
-15z m-68 -62 c25 -22 23 -33 -7 -33 -20 0 -25 5 -25 25 0 29 7 31 32 8z m68
-18 c10 -12 10 -15 -4 -15 -9 0 -16 7 -16 15 0 8 2 15 4 15 2 0 9 -7 16 -15z
m-180 -70 c0 -22 -4 -25 -40 -25 -36 0 -40 3 -40 25 0 23 4 25 40 25 36 0 40
-2 40 -25z m240 0 c0 -16 -6 -25 -15 -25 -18 0 -18 5 -5 31 14 26 20 24 20 -6z"/>
<path d="M2850 2636 c0 -2 7 -9 15 -16 12 -10 15 -10 15 4 0 9 -7 16 -15 16
-8 0 -15 -2 -15 -4z"/>
<path d="M4042 2585 c-23 -29 -55 -35 -45 -7 6 16 5 16 -14 0 -11 -10 -33 -18
-51 -18 -21 0 -40 -10 -61 -31 -17 -17 -31 -35 -31 -40 0 -5 -14 -9 -31 -9
-21 0 -29 -4 -25 -12 2 -7 12 -36 21 -64 11 -35 22 -54 35 -57 11 -3 23 -13
26 -24 15 -40 36 -53 86 -53 36 0 48 -4 48 -15 0 -9 -9 -15 -25 -15 -14 0 -25
-4 -25 -9 0 -5 11 -18 25 -29 40 -31 32 -44 -27 -42 -29 1 -72 1 -95 1 l-43
-1 0 -40 c0 -40 0 -40 39 -40 22 0 44 -6 51 -15 7 -8 18 -15 25 -15 12 0 45
-31 45 -43 0 -4 -22 -7 -50 -7 -56 0 -62 -9 -25 -38 14 -11 25 -24 25 -29 0
-6 16 -18 36 -29 33 -18 36 -18 48 -3 10 15 14 15 31 3 28 -21 45 -17 45 11 0
23 -4 25 -40 25 -56 0 -50 17 8 22 51 5 66 -2 85 -40 6 -13 15 -24 20 -23 4 0
25 1 47 1 22 0 40 5 40 10 0 6 -18 10 -40 10 l-40 0 0 41 0 41 -80 -7 -80 -7
0 31 c0 38 12 39 38 6 28 -36 42 -31 42 15 0 46 14 51 42 15 11 -14 24 -25 29
-25 5 0 9 68 9 160 l0 160 40 0 c29 0 40 -4 40 -15 0 -9 -9 -15 -25 -15 -30 0
-32 -11 -4 -36 17 -16 22 -16 30 -4 8 13 14 10 34 -12 30 -35 45 -36 45 -3 0
23 4 25 40 25 l40 0 0 105 c0 63 4 105 10 105 6 0 10 7 10 15 0 19 -75 21 -84
3 -5 -10 -7 -10 -12 0 -3 7 -25 12 -54 12 -40 0 -52 -4 -68 -25 -31 -39 -42
-31 -42 32 0 54 -1 55 -18 40 -29 -27 -62 -22 -62 8 0 14 -4 25 -9 25 -5 0
-18 -11 -29 -25z m138 -170 c10 -12 10 -15 -4 -15 -9 0 -16 7 -16 15 0 8 2 15
4 15 2 0 9 -7 16 -15z m-68 -142 c25 -22 23 -33 -7 -33 -20 0 -25 5 -25 25 0
29 7 31 32 8z m0 -80 c25 -22 23 -33 -7 -33 -20 0 -25 5 -25 25 0 29 7 31 32
8z m-159 -81 c19 -21 13 -32 -15 -32 -13 0 -18 7 -18 25 0 30 11 32 33 7z"/>
<path d="M4207 2592 c-23 -25 -21 -32 8 -32 20 0 25 5 25 25 0 30 -11 32 -33
7z"/>
<path d="M4260 2591 c-15 -28 -13 -31 20 -31 17 0 30 3 30 6 0 12 -21 44 -30
44 -5 0 -14 -9 -20 -19z"/>
<path d="M2386 2581 c-4 -7 -5 -15 -2 -18 9 -9 19 4 14 18 -4 11 -6 11 -12 0z"/>
<path d="M3085 2570 c-3 -5 -1 -10 4 -10 6 0 11 5 11 10 0 6 -2 10 -4 10 -3 0
-8 -4 -11 -10z"/>
<path d="M2320 2465 c0 -8 5 -15 10 -15 6 0 10 7 10 15 0 8 -4 15 -10 15 -5 0
-10 -7 -10 -15z"/>
<path d="M3476 2385 c4 -8 10 -15 14 -15 4 0 10 7 14 15 4 10 -1 15 -14 15
-13 0 -18 -5 -14 -15z"/>
<path d="M3810 2316 c0 -2 7 -9 15 -16 12 -10 15 -10 15 4 0 9 -7 16 -15 16
-8 0 -15 -2 -15 -4z"/>
<path d="M2063 2225 c-19 -21 -17 -85 2 -85 11 0 15 12 15 50 0 55 0 55 -17
35z"/>
<path d="M2370 2236 c0 -2 7 -9 15 -16 12 -10 15 -10 15 4 0 9 -7 16 -15 16
-8 0 -15 -2 -15 -4z"/>
<path d="M3820 2225 c9 -11 15 -12 20 -5 5 7 15 8 32 1 19 -7 31 -6 44 4 17
13 12 14 -45 15 -56 0 -62 -2 -51 -15z"/>
<path d="M4190 2192 c0 -36 5 -54 20 -67 11 -10 22 -16 25 -13 3 2 2 32 -1 66
-6 51 -10 62 -25 62 -16 0 -19 -8 -19 -48z"/>
<path d="M3100 2145 c0 -8 5 -15 10 -15 6 0 10 7 10 15 0 8 -4 15 -10 15 -5 0
-10 -7 -10 -15z"/>
<path d="M3460 2152 c0 -5 6 -17 14 -27 12 -16 16 -17 30 -6 14 12 16 10 16
-13 0 -14 5 -26 10 -26 6 0 10 18 10 40 l0 40 -40 0 c-22 0 -40 -4 -40 -8z"/>
<path d="M4270 2120 c0 -33 3 -40 20 -40 17 0 20 7 20 40 0 33 -3 40 -20 40
-17 0 -20 -7 -20 -40z"/>
<path d="M4320 2145 c0 -11 11 -15 40 -15 29 0 40 4 40 15 0 11 -11 15 -40 15
-29 0 -40 -4 -40 -15z"/>
<path d="M4430 2120 c0 -29 -4 -40 -15 -40 -23 0 -18 -20 10 -42 14 -11 25
-24 25 -29 0 -5 -37 -9 -81 -9 -71 0 -80 -2 -69 -15 7 -8 18 -15 25 -15 8 0
22 -11 33 -25 22 -28 42 -33 42 -10 0 11 11 15 40 15 l40 0 0 65 c0 51 -3 65
-15 65 -11 0 -15 11 -15 40 0 22 -4 40 -10 40 -5 0 -10 -18 -10 -40z"/>
<path d="M2045 2070 c11 -5 14 -9 6 -9 -11 -1 -11 -4 -1 -16 18 -22 30 -18 30
10 0 21 -5 25 -27 24 -25 0 -26 -1 -8 -9z"/>
<path d="M2620 2071 c0 -5 5 -13 10 -16 6 -3 10 -2 10 4 0 5 -4 13 -10 16 -5
3 -10 2 -10 -4z"/>
<path d="M3090 2076 c0 -2 7 -9 15 -16 12 -10 15 -10 15 4 0 9 -7 16 -15 16
-8 0 -15 -2 -15 -4z"/>
<path d="M2770 1996 c0 -2 7 -9 15 -16 12 -10 15 -10 15 4 0 9 -7 16 -15 16
-8 0 -15 -2 -15 -4z"/>
<path d="M2850 1996 c0 -2 7 -9 15 -16 12 -10 15 -10 15 4 0 9 -7 16 -15 16
-8 0 -15 -2 -15 -4z"/>
<path d="M3010 1996 c0 -2 7 -9 15 -16 12 -10 15 -10 15 4 0 9 -7 16 -15 16
-8 0 -15 -2 -15 -4z"/>
<path d="M3730 1987 c0 -8 7 -14 15 -14 8 0 15 6 15 14 0 7 -7 13 -15 13 -8 0
-15 -6 -15 -13z"/>
<path d="M7325 1919 l-30 -6 28 -13 c29 -14 41 -10 35 12 -2 9 -12 12 -33 7z"/>
<path d="M4274 1905 c25 -19 46 -19 46 0 0 10 -10 15 -32 15 -31 -1 -32 -1
-14 -15z"/>
<path d="M6935 1910 c3 -5 10 -10 16 -10 5 0 9 5 9 10 0 6 -7 10 -16 10 -8 0
-12 -4 -9 -10z"/>
<path d="M7015 1910 c3 -5 10 -10 16 -10 5 0 9 5 9 10 0 6 -7 10 -16 10 -8 0
-12 -4 -9 -10z"/>
<path d="M7095 1910 c3 -5 28 -10 56 -10 27 0 49 5 49 10 0 6 -25 10 -56 10
-34 0 -53 -4 -49 -10z"/>
<path d="M7234 1905 c25 -19 46 -19 46 0 0 10 -10 15 -32 15 -31 -1 -32 -1
-14 -15z"/>
<path d="M7415 1910 c3 -5 10 -10 16 -10 5 0 9 5 9 10 0 6 -7 10 -16 10 -8 0
-12 -4 -9 -10z"/>
<path d="M7495 1910 c3 -5 28 -10 56 -10 27 0 49 5 49 10 0 6 -25 10 -56 10
-34 0 -53 -4 -49 -10z"/>
<path d="M7626 1905 c4 -8 15 -15 25 -15 10 0 19 7 19 15 0 9 -9 15 -25 15
-18 0 -23 -4 -19 -15z"/>
<path d="M7735 1910 c3 -5 10 -10 16 -10 5 0 9 5 9 10 0 6 -7 10 -16 10 -8 0
-12 -4 -9 -10z"/>
<path d="M7805 1910 c-3 -5 -4 -10 -1 -10 2 0 11 -3 20 -6 11 -4 16 -1 16 10
0 18 -25 22 -35 6z"/>
<path d="M7895 1910 c3 -5 10 -10 16 -10 5 0 9 5 9 10 0 6 -7 10 -16 10 -8 0
-12 -4 -9 -10z"/>
<path d="M7975 1910 c3 -5 10 -10 16 -10 5 0 9 5 9 10 0 6 -7 10 -16 10 -8 0
-12 -4 -9 -10z"/>
<path d="M8055 1910 c3 -5 10 -10 16 -10 5 0 9 5 9 10 0 6 -7 10 -16 10 -8 0
-12 -4 -9 -10z"/>
<path d="M8120 1905 c32 -18 40 -18 40 0 0 10 -10 15 -32 15 l-33 -1 25 -14z"/>
<path d="M8215 1910 c3 -5 10 -10 16 -10 5 0 9 5 9 10 0 6 -7 10 -16 10 -8 0
-12 -4 -9 -10z"/>
<path d="M8280 1905 c32 -18 40 -18 40 0 0 10 -10 15 -32 15 l-33 -1 25 -14z"/>
<path d="M8421 1917 c2 -2 16 -11 32 -20 26 -17 27 -17 27 3 0 16 -7 20 -32
20 -17 0 -29 -1 -27 -3z"/>
<path d="M8514 1905 c25 -19 46 -19 46 0 0 10 -10 15 -32 15 -31 -1 -32 -1
-14 -15z"/>
<path d="M8594 1905 c25 -19 46 -19 46 0 0 10 -10 15 -32 15 -31 -1 -32 -1
-14 -15z"/>
<path d="M9015 1910 c3 -5 10 -10 16 -10 5 0 9 5 9 10 0 6 -7 10 -16 10 -8 0
-12 -4 -9 -10z"/>
<path d="M861 1894 c0 -11 3 -14 6 -6 3 7 2 16 -1 19 -3 4 -6 -2 -5 -13z"/>
<path d="M5554 1825 c25 -19 46 -19 46 0 0 10 -10 15 -32 15 -31 -1 -32 -1
-14 -15z"/>
<path d="M5975 1830 c3 -5 10 -10 16 -10 5 0 9 5 9 10 0 6 -7 10 -16 10 -8 0
-12 -4 -9 -10z"/>
<path d="M6215 1830 c3 -5 10 -10 16 -10 5 0 9 5 9 10 0 6 -7 10 -16 10 -8 0
-12 -4 -9 -10z"/>
<path d="M6274 1825 c25 -19 46 -19 46 0 0 10 -10 15 -32 15 -31 -1 -32 -1
-14 -15z"/>
<path d="M6613 1825 c0 -8 6 -15 14 -15 7 0 13 7 13 15 0 8 -6 15 -13 15 -8 0
-14 -7 -14 -15z"/>
<path d="M6775 1830 c3 -5 10 -10 16 -10 5 0 9 5 9 10 0 6 -7 10 -16 10 -8 0
-12 -4 -9 -10z"/>
<path d="M6855 1830 c3 -5 10 -10 16 -10 5 0 9 5 9 10 0 6 -7 10 -16 10 -8 0
-12 -4 -9 -10z"/>
<path d="M7256 1825 c4 -8 10 -15 15 -15 5 0 9 7 9 15 0 8 -7 15 -15 15 -9 0
-12 -6 -9 -15z"/>
<path d="M7415 1830 c3 -5 10 -10 16 -10 5 0 9 5 9 10 0 6 -7 10 -16 10 -8 0
-12 -4 -9 -10z"/>
<path d="M7720 1825 c32 -18 40 -18 40 0 0 10 -10 15 -32 15 l-33 -1 25 -14z"/>
<path d="M8216 1825 c4 -8 10 -15 15 -15 5 0 9 7 9 15 0 8 -7 15 -15 15 -9 0
-12 -6 -9 -15z"/>
<path d="M8535 1830 c3 -5 10 -10 16 -10 5 0 9 5 9 10 0 6 -7 10 -16 10 -8 0
-12 -4 -9 -10z"/>
<path d="M8615 1830 c3 -5 10 -10 16 -10 5 0 9 5 9 10 0 6 -7 10 -16 10 -8 0
-12 -4 -9 -10z"/>
<path d="M1495 1750 c3 -5 10 -10 16 -10 5 0 9 5 9 10 0 6 -7 10 -16 10 -8 0
-12 -4 -9 -10z"/>
<path d="M4580 1752 c0 -5 6 -17 14 -28 12 -15 17 -17 27 -6 7 6 32 12 56 12
32 0 43 4 43 15 0 12 -14 15 -70 15 -38 0 -70 -4 -70 -8z"/>
<path d="M4910 1752 c0 -10 33 -42 43 -42 4 0 7 11 7 25 0 20 -5 25 -25 25
-14 0 -25 -4 -25 -8z"/>
<path d="M4994 1745 c25 -19 46 -19 46 0 0 10 -10 15 -32 15 -31 -1 -32 -1
-14 -15z"/>
<path d="M5074 1745 c25 -19 46 -19 46 0 0 10 -10 15 -32 15 -31 -1 -32 -1
-14 -15z"/>
<path d="M5978 1753 c7 -3 16 -2 19 1 4 3 -2 6 -13 5 -11 0 -14 -3 -6 -6z"/>
<path d="M4770 1690 c0 -5 -6 -10 -13 -10 -25 0 -14 -29 15 -39 27 -10 28 -9
28 25 0 24 -5 34 -15 34 -8 0 -15 -4 -15 -10z"/>
<path d="M4580 1672 c0 -5 6 -17 14 -27 12 -16 16 -17 30 -6 11 9 16 10 16 2
0 -6 17 -11 40 -11 36 0 40 3 40 25 0 24 -2 25 -70 25 -38 0 -70 -4 -70 -8z"/>
<path d="M4830 1672 c0 -5 10 -17 21 -28 16 -14 23 -15 26 -6 3 7 21 12 44 12
28 0 39 4 39 15 0 12 -14 15 -65 15 -36 0 -65 -4 -65 -8z"/>
<path d="M5075 1664 c11 -8 29 -13 40 -10 11 3 35 6 53 6 17 0 32 5 32 10 0 6
-31 10 -72 10 -67 -1 -71 -2 -53 -16z"/>
<path d="M5253 1673 c4 -3 29 -14 57 -24 l50 -18 0 25 c0 23 -3 24 -57 24 -31
0 -53 -3 -50 -7z"/>
<path d="M5390 1672 c0 -10 33 -42 43 -42 4 0 7 11 7 25 0 20 -5 25 -25 25
-14 0 -25 -4 -25 -8z"/>
<path d="M5490 1676 c0 -2 7 -9 15 -16 12 -10 15 -10 15 4 0 9 -7 16 -15 16
-8 0 -15 -2 -15 -4z"/>
<path d="M5975 1670 c3 -5 10 -10 16 -10 5 0 9 5 9 10 0 6 -7 10 -16 10 -8 0
-12 -4 -9 -10z"/>
<path d="M4700 1591 c0 -5 5 -13 10 -16 6 -3 10 -2 10 4 0 5 -4 13 -10 16 -5
3 -10 2 -10 -4z"/>
<path d="M4757 1593 c-8 -7 21 -43 35 -43 4 0 8 11 8 25 0 18 -5 25 -18 25
-10 0 -22 -3 -25 -7z"/>
<path d="M4850 1596 c0 -2 7 -9 15 -16 12 -10 15 -10 15 4 0 9 -7 16 -15 16
-8 0 -15 -2 -15 -4z"/>
<path d="M4940 1585 c7 -8 18 -15 25 -15 8 0 22 -11 33 -25 28 -36 42 -31 42
15 l0 40 -56 0 c-49 0 -55 -2 -44 -15z"/>
</g>
</svg>
